<svg xmlns="http://www.w3.org/2000/svg" viewBox="0 0 423.76242 86.99898">
  <title>Teamatical Logo</title>
  <path d="M492.76249,388.191H474.232l-13.66444,55.56244H399.66572L413.33016,388.191H394.28348l5.30325-18.52081h98.479Z" transform="translate(-394.28348 -358.06396)" style="fill: #d71f27"/>
  <path d="M497.50735,396.25586q6.91367,0,11.005,3.0721c2.76641,2.07947,3.79176,2.1035,3.07222,4.98942l-3.98053,13.507H486.78414L483.581,433.1294c-.17814.71447.0867,2.54863.79805,3.04438a4.71452,4.71452,0,0,0,2.68349,1.35928,6.54629,6.54629,0,0,0,3.12843-.43749,3.45714,3.45714,0,0,0,1.62971-2.1146l2.35591-9.74831h12.58022l-2.1238,8.971c-.71954,2.88591-2.9829,5.59562-6.786,7.674a25.78764,25.78764,0,0,1-12.53693,3.18533c-4.56125,0-8.23077-.96742-11.005-3.01549-2.71882-2.07835-3.71819-4.5333-2.99865-7.41921l6.95153-27.86693q1.07931-4.32887,6.7124-7.44044A25.9726,25.9726,0,0,1,497.50735,396.25586Zm-.534,17.86431,2.26307-8.67615c.17786-.71335-.06482-1.1182-.72448-1.61507a4.70492,4.70492,0,0,0-2.75705-.64462,6.29188,6.29188,0,0,0-3.05486.79482c-.95884.49687-1.52542.7265-1.70328,1.43985l-2.26307,8.70118Z" transform="translate(-394.28348 -358.06396)" style="fill: #d71f27"/>
  <path d="M534.51144,396.25586q6.91367,0,11.005,3.0721c2.76641,2.07947,3.79176,4.38554,3.07222,7.27146l-9.30744,37.15406h-9.49034c-2.48419,0-4.97531,1.24664-7.47664,1.24664a21.98151,21.98151,0,0,1-7.01636-.98255,11.86143,11.86143,0,0,1-5.81666-3.77284,6.31046,6.31046,0,0,1-1.17064-5.61018l1.84527-7.39a7.41884,7.41884,0,0,1,.61529-1.5771q1.72974-3.39681,6.98746-6.18744a43.422,43.422,0,0,1,4.313-1.9536q.90128-.37266,3.562-1.30263l8.73851-2.88557,1.86848-7.49389a1.64269,1.64269,0,0,0-.72448-1.81525,4.71364,4.71364,0,0,0-2.75705-.74471,6.25981,6.25981,0,0,0-3.05486.74477c-.95884.49688-1.52542.81785-1.70328,1.5312l-2.205,8.55979H513.28918l1.97293-7.62884c.71954-2.88591,2.95691-5.226,6.7124-7.30544A25.87893,25.87893,0,0,1,534.51144,396.25586Zm-5.98465,39.93675a1.87829,1.87829,0,0,0,.298-.60511l3.27274-13.12625-.80532.27928-.87889.27928q-4.95775,1.58316-7.01908,3.95649a3.69705,3.69705,0,0,0-1.17276,2.04807l-1.63637,6.56312a1.61779,1.61779,0,0,0,.79805,1.81533,4.361,4.361,0,0,0,2.68349.74475l.82086-.04655.23231-.04655.46462-.09309.37945-.04655.32909-.13964.32909-.13964.32909-.13964.3407-.18619.17035-.09309A3.59017,3.59017,0,0,0,528.52679,436.19261Z" transform="translate(-394.28348 -358.06396)" style="fill: #d71f27"/>
  <path d="M597.33807,396.25586c7.79826,0,10.81916,3.34637,9.063,10.3901l-9.29584,37.10751H584.59854l9.52795-38.03845a1.58519,1.58519,0,0,0-.78645-1.77385,4.36434,4.36434,0,0,0-2.6826-.70074,6.70892,6.70892,0,0,0-3.12843.76676c-.9169.52772-1.46346.98348-1.64132,1.69682l-9.52795,38.04945H563.706l9.52795-38.03845a1.60565,1.60565,0,0,0-.71288-1.77385,4.70766,4.70766,0,0,0-2.75705-.70074,6.27335,6.27335,0,0,0-3.05486.76676c-.96653.52772-1.537.98348-1.71488,1.69682l-9.52795,38.04945H542.95964l11.675-44.45h12.35951l-.325.2915c-.04195-.03084-.00641-.5833.10838-.64555.11288-.06169.27945-.39259.49944-.48569.60854-.27928,1.26281-.66934,1.96294-.91778a22.68925,22.68925,0,0,1,7.27915-1.22691c4.80589,0,7.7876,1.2874,8.94529,3.92487a7.13863,7.13863,0,0,1,2.54735-1.97078A19.5863,19.5863,0,0,1,597.33807,396.25586Z" transform="translate(-394.28348 -358.06396)" style="fill: #d71f27"/>
  <path d="M629.34038,396.25586q6.91367,0,11.005,3.0721c2.76641,2.07947,3.79176,4.38554,3.07222,7.27146l-9.30744,37.15406h-9.49034c-2.48419,0-4.97531,1.24664-7.47664,1.24664a21.98151,21.98151,0,0,1-7.01636-.98255,11.86143,11.86143,0,0,1-5.81666-3.77284,6.31046,6.31046,0,0,1-1.17064-5.61018l1.84527-7.39a7.41884,7.41884,0,0,1,.61529-1.5771q1.72974-3.39681,6.98746-6.18744a43.422,43.422,0,0,1,4.313-1.9536q.90128-.37266,3.562-1.30263l8.73851-2.88557,1.86848-7.49389a1.64269,1.64269,0,0,0-.72448-1.81525,4.71364,4.71364,0,0,0-2.75705-.74471,6.25981,6.25981,0,0,0-3.05486.74477c-.95884.49688-1.52542.81785-1.70328,1.5312l-2.205,8.55979H608.11813l1.97293-7.62884c.71954-2.88591,2.95691-5.226,6.7124-7.30544A25.87893,25.87893,0,0,1,629.34038,396.25586Zm-5.98465,39.93675a1.87829,1.87829,0,0,0,.298-.60511l3.27274-13.12625-.80532.27928-.87889.27928q-4.95775,1.58316-7.01908,3.95649a3.69705,3.69705,0,0,0-1.17276,2.04807l-1.63637,6.56312a1.61779,1.61779,0,0,0,.79805,1.81533,4.361,4.361,0,0,0,2.68349.74475l.82086-.04655.23231-.04655.46462-.09309.37945-.04655.32909-.13964.32909-.13964.32909-.13964.3407-.18619.17035-.09309A3.59017,3.59017,0,0,0,623.35573,436.19261Z" transform="translate(-394.28348 -358.06396)" style="fill: #d71f27"/>
  <path d="M686.81248,392.01563H674.453l1.82826-7.52876h12.35951Zm-12.46122,51.73785H661.99175l10.75825-44.45h12.35951Z" transform="translate(-394.28348 -358.06396)" style="fill: #d71f27"/>
  <path d="M703.25572,425.23266h12.58022l-2.1238,8.971c-.71954,2.88591-2.9829,5.59562-6.786,7.674a25.78764,25.78764,0,0,1-12.53693,3.18533c-4.56125,0-8.23077-.96742-11.005-3.01549-2.71882-2.07835-3.71819-4.5333-2.99865-7.41921l6.95153-27.86693q1.07931-4.32887,6.7124-7.44044a25.97516,25.97516,0,0,1,12.53693-3.06856q6.91367,0,11.005,3.07387c2.76641,2.07947,3.79176,4.32489,3.07222,7.2108l-1.94972,7.58318H706.13374l2.18183-8.51323a1.48382,1.48382,0,0,0-.72448-1.69653,4.70636,4.70636,0,0,0-2.75705-.68535,6.27829,6.27829,0,0,0-3.05486.77445,2.99888,2.99888,0,0,0-1.70328,1.83018l-7.41575,29.75038a1.62264,1.62264,0,0,0,.79805,1.819,4.36119,4.36119,0,0,0,2.68349.74661,6.695,6.695,0,0,0,3.12843-.74382,3.73241,3.73241,0,0,0,1.62971-2.26777Z" transform="translate(-394.28348 -358.06396)" style="fill: #d71f27"/>
  <path d="M743.59053,396.25586q6.91367,0,11.005,3.0721c2.76641,2.07947,3.79176,4.38554,3.07222,7.27146l-9.30744,37.15406H738.87c-2.48419,0-4.97531,1.24664-7.47664,1.24664a21.98151,21.98151,0,0,1-7.01636-.98255,11.86143,11.86143,0,0,1-5.81666-3.77284,6.31046,6.31046,0,0,1-1.17064-5.61018l1.84527-7.39a7.41884,7.41884,0,0,1,.61529-1.5771q1.72974-3.39681,6.98746-6.18744a43.422,43.422,0,0,1,4.313-1.9536q.90128-.37266,3.562-1.30263l8.73851-2.88557,1.86848-7.49389a1.64269,1.64269,0,0,0-.72448-1.81525,4.71364,4.71364,0,0,0-2.75705-.74471,6.25981,6.25981,0,0,0-3.05486.74477c-.95884.49688-1.52542.81785-1.70328,1.5312l-2.205,8.55979H722.36828l1.97293-7.62884c.71954-2.88591,2.95691-5.226,6.7124-7.30544A25.87893,25.87893,0,0,1,743.59053,396.25586Zm-5.98465,39.93675a1.87829,1.87829,0,0,0,.298-.60511l3.27274-13.12625-.80532.27928-.87889.27928q-4.95775,1.58316-7.01908,3.95649a3.69705,3.69705,0,0,0-1.17276,2.04807l-1.63637,6.56312a1.61779,1.61779,0,0,0,.79805,1.81533,4.361,4.361,0,0,0,2.68349.74475l.82086-.04655.23231-.04655.46462-.09309.37945-.04655.32909-.13964.32909-.13964.32909-.13964.3407-.18619.17035-.09309A3.59017,3.59017,0,0,0,737.60589,436.19261Z" transform="translate(-394.28348 -358.06396)" style="fill: #d71f27"/>
  <path d="M764.39825,443.75347H752.03874l15.56279-62.97077H779.961Z" transform="translate(-394.28348 -358.06396)" style="fill: #d71f27"/>
  <path d="M818.0459,369.50488A11.75919,11.75919,0,1,1,806.32617,358.064,11.49638,11.49638,0,0,1,818.0459,369.50488Zm-20.58008,0a8.86456,8.86456,0,0,0,8.92969,9.13916,8.76083,8.76083,0,0,0,8.7207-9.06934c0-5.09277-3.69727-9.2085-8.79-9.2085A8.89155,8.89155,0,0,0,797.46582,369.50488Zm7.0459,5.99951h-2.65039V364.06348a23.15305,23.15305,0,0,1,4.39453-.34863,7.12724,7.12724,0,0,1,3.97656.83691,3.173,3.173,0,0,1,1.11621,2.51172,2.93032,2.93032,0,0,1-2.37207,2.65088v.13916a3.378,3.378,0,0,1,2.09375,2.791,8.73121,8.73121,0,0,0,.83691,2.85986h-2.86035a9.79234,9.79234,0,0,1-.90723-2.79053c-.209-1.25537-.90625-1.81348-2.37207-1.81348h-1.25586Zm.07031-6.48779h1.25586c1.46484,0,2.65039-.48828,2.65039-1.67432,0-1.04639-.7666-1.74414-2.44141-1.74414a6.34536,6.34536,0,0,0-1.46484.13965Z" transform="translate(-394.28348 -358.06396)" style="fill: #d71f27"/>
  <polygon points="275.737 41.24 270.538 41.24 274.967 22.719 262.607 22.719 258.179 41.24 253.133 41.24 252.05 45.436 257.175 45.436 247.551 85.69 259.91 85.69 269.535 45.436 274.654 45.436 275.737 41.24" style="fill: #d71f27"/>
</svg>
